<svg width="15" height="9" viewBox="0 0 15 9" fill="none" xmlns="http://www.w3.org/2000/svg">
<path fill-rule="evenodd" clip-rule="evenodd" d="M12.293 1.29299C12.3853 1.19748 12.4956 1.1213 12.6176 1.06889C12.7396 1.01648 12.8708 0.988893 13.0036 0.987739C13.1364 0.986585 13.2681 1.01189 13.391 1.06217C13.5139 1.11245 13.6255 1.1867 13.7194 1.28059C13.8133 1.37449 13.8876 1.48614 13.9378 1.60904C13.9881 1.73193 14.0134 1.86361 14.0123 1.99639C14.0111 2.12917 13.9835 2.26039 13.9311 2.38239C13.8787 2.5044 13.8025 2.61474 13.707 2.70699L7.70701 8.70699C7.52478 8.88925 7.27921 8.99411 7.02154 8.9997C6.76386 9.00529 6.51398 8.91118 6.32401 8.73699L0.324011 3.23699C0.128547 3.0577 0.0123094 2.80811 0.000869632 2.54312C-0.00479474 2.41191 0.0154396 2.28087 0.060418 2.15749C0.105396 2.0341 0.174238 1.92077 0.263011 1.82399C0.351785 1.72721 0.458752 1.64885 0.577806 1.59341C0.69686 1.53796 0.825668 1.50651 0.956878 1.50085C1.22187 1.48941 1.48055 1.5837 1.67601 1.76299L6.97001 6.61599L12.293 1.29299Z" fill="#848895"/>
</svg>
