<svg width="16" height="16" viewBox="0 0 16 16" fill="none" xmlns="http://www.w3.org/2000/svg">
<path d="M13.6569 2.34314C12.1459 0.832133 10.1369 0 8 0C5.8631 0 3.85411 0.832133 2.34314 2.34314C0.832166 3.85414 0 5.8631 0 8C0 10.1369 0.832133 12.1459 2.34314 13.6569C3.85414 15.1678 5.8631 16 8 16C10.1369 16 12.1459 15.1679 13.6569 13.6569C15.1678 12.1459 16 10.1369 16 8C16 5.8631 15.1679 3.85411 13.6569 2.34314ZM8 14.9378C4.17451 14.9378 1.06224 11.8255 1.06224 8C1.06224 4.17451 4.17451 1.06224 8 1.06224C11.8255 1.06224 14.9378 4.17451 14.9378 8C14.9378 11.8255 11.8255 14.9378 8 14.9378ZM8.53112 6.36176V11.9663C8.53112 12.2597 8.29331 12.4975 8 12.4975C7.70669 12.4975 7.46888 12.2597 7.46888 11.9663V6.89288H6.72382C6.43051 6.89288 6.1927 6.6551 6.1927 6.36176C6.1927 6.06842 6.43051 5.83064 6.72382 5.83064H8C8.29331 5.83064 8.53112 6.06845 8.53112 6.36176ZM8.53112 4.03369V4.28876C8.53112 4.58211 8.29331 4.81988 8 4.81988C7.70669 4.81988 7.46888 4.58211 7.46888 4.28876V4.03369C7.46888 3.74035 7.70669 3.50257 8 3.50257C8.29331 3.50257 8.53112 3.74035 8.53112 4.03369Z" fill="white"/>
</svg>
