<svg width="189" height="42" viewBox="0 0 189 42" fill="none" xmlns="http://www.w3.org/2000/svg">
<path d="M27.3812 22.204L29.7954 19.1729C29.9669 18.9575 30.252 18.862 30.5166 18.9379C37.5898 20.9656 39.243 27.1171 39.1751 29.9941C38.8428 39.5324 31.3096 41.9724 27.5846 42.0001H1.45274C0.866434 42.0001 0.539913 41.3224 0.905267 40.8639L3.86104 37.1541C3.99385 36.9874 4.19538 36.8903 4.40851 36.8903H27.5846C29.7448 36.8626 34.0653 35.4446 34.0653 29.9941C33.6146 25.3813 30.4554 23.8454 28.0076 23.5392C27.3911 23.4621 26.9941 22.69 27.3812 22.204Z" fill="url(#paint0_linear_6_10723)"/>
<path d="M17.8645 26.82L30.824 10.6934C31.1921 10.2353 30.866 9.5549 30.2784 9.5549H11.6912C11.6519 9.5549 11.6126 9.55791 11.5741 9.56574C10.9085 9.70089 9.70736 10.3044 9.80417 11.7567C9.89976 13.1904 10.9702 13.8224 11.5587 13.982C11.6074 13.9952 11.6575 14 11.708 14H20.9748C21.5621 14 21.8883 14.6797 21.5209 15.1379L8.5563 31.3072C8.1889 31.7654 8.51511 32.4451 9.10242 32.4451H27.7149C27.7936 32.4451 27.872 32.4329 27.9444 32.4021C28.5876 32.1287 29.5877 31.3152 29.6202 30.1602C29.6512 29.0585 28.6176 28.3008 27.9533 28.0078C27.875 27.9732 27.79 27.9585 27.7044 27.9585H18.4101C17.8225 27.9585 17.4964 27.2781 17.8645 26.82Z" fill="url(#paint1_linear_6_10723)"/>
<path d="M35.6049 4.80389L38.5214 1.13564C38.8861 0.676973 38.5595 0 37.9735 0H11.1751C7.67163 0.318496 0.581613 2.96617 0.249268 11.0089C-0.0689245 18.7092 5.70577 22.1749 9.00546 23.0759C9.26489 23.1467 9.53591 23.0466 9.70206 22.8351L12.0434 19.8553C12.4285 19.3651 12.0204 18.5881 11.4032 18.5004C8.24072 18.0514 4.87347 15.4369 5.40061 11.0089C5.89913 6.82136 9.45798 5.30366 11.1751 5.06825H35.0569C35.2703 5.06825 35.4721 4.97092 35.6049 4.80389Z" fill="url(#paint2_linear_6_10723)"/>
<path d="M55.6241 23.732V32.5H51.9761V9.908H59.6561C62.2588 9.908 64.2108 10.5267 65.5121 11.764C66.8348 13.0013 67.4961 14.6973 67.4961 16.852C67.4961 18.9853 66.8241 20.6707 65.4801 21.908C64.1361 23.124 62.1948 23.732 59.6561 23.732H55.6241ZM59.2721 20.756C62.2801 20.756 63.7841 19.4547 63.7841 16.852C63.7841 15.572 63.4214 14.6013 62.6961 13.94C61.9921 13.2573 60.8508 12.916 59.2721 12.916H55.6241V20.756H59.2721ZM74.3428 8.82V32.5H70.6948V8.82H74.3428ZM85.8293 14.644C87.4293 14.644 88.7947 15.0387 89.9253 15.828C91.056 16.6173 91.856 17.6627 92.3253 18.964V14.868H95.9733V32.5H92.3253V28.404C91.856 29.7053 91.056 30.7507 89.9253 31.54C88.7947 32.3293 87.4293 32.724 85.8293 32.724C84.2933 32.724 82.9173 32.3613 81.7013 31.636C80.5067 30.9107 79.568 29.8653 78.8853 28.5C78.2027 27.1347 77.8613 25.524 77.8613 23.668C77.8613 21.8333 78.2027 20.2333 78.8853 18.868C79.568 17.5027 80.5067 16.4573 81.7013 15.732C82.9173 15.0067 84.2933 14.644 85.8293 14.644ZM86.9493 17.844C85.328 17.844 84.0267 18.3667 83.0453 19.412C82.0853 20.436 81.6053 21.8547 81.6053 23.668C81.6053 25.4813 82.0853 26.9107 83.0453 27.956C84.0267 28.98 85.328 29.492 86.9493 29.492C87.9733 29.492 88.8907 29.2573 89.7013 28.788C90.512 28.2973 91.152 27.6147 91.6213 26.74C92.0907 25.8653 92.3253 24.8413 92.3253 23.668C92.3253 22.516 92.0907 21.5027 91.6213 20.628C91.152 19.732 90.512 19.0493 89.7013 18.58C88.8907 18.0893 87.9733 17.844 86.9493 17.844ZM109.215 29.332V32.5H106.975C105.098 32.5 103.668 32.052 102.687 31.156C101.727 30.2387 101.247 28.724 101.247 26.612V17.972H98.7191V14.868H101.247V10.484H104.927V14.868H109.183V17.972H104.927V26.676C104.927 27.6787 105.108 28.372 105.471 28.756C105.855 29.14 106.516 29.332 107.455 29.332H109.215ZM120.856 11.22C119.427 11.156 118.424 11.3907 117.848 11.924C117.272 12.436 116.984 13.3213 116.984 14.58V14.868H120.856V18.004H116.984V32.5H113.304V18.004H110.904V14.868H113.304V14.292C113.304 12.1373 113.934 10.5267 115.192 9.46C116.451 8.372 118.339 7.892 120.856 8.02V11.22ZM131.853 14.644C133.559 14.644 135.095 15.0067 136.461 15.732C137.826 16.4573 138.893 17.5027 139.661 18.868C140.429 20.2333 140.813 21.8333 140.813 23.668C140.813 25.524 140.429 27.1347 139.661 28.5C138.893 29.8653 137.826 30.9107 136.461 31.636C135.095 32.3613 133.559 32.724 131.853 32.724C130.146 32.724 128.61 32.3613 127.245 31.636C125.901 30.9107 124.834 29.8653 124.045 28.5C123.277 27.1133 122.893 25.5027 122.893 23.668C122.893 21.8333 123.277 20.2333 124.045 18.868C124.834 17.5027 125.901 16.4573 127.245 15.732C128.61 15.0067 130.146 14.644 131.853 14.644ZM131.853 17.812C130.914 17.812 130.05 18.0253 129.261 18.452C128.471 18.8787 127.831 19.54 127.341 20.436C126.871 21.3107 126.637 22.388 126.637 23.668C126.637 24.9693 126.871 26.0573 127.341 26.932C127.831 27.8067 128.471 28.4573 129.261 28.884C130.05 29.3107 130.914 29.524 131.853 29.524C132.791 29.524 133.655 29.3107 134.445 28.884C135.234 28.4573 135.863 27.8067 136.333 26.932C136.823 26.0573 137.069 24.9693 137.069 23.668C137.069 22.388 136.823 21.3107 136.333 20.436C135.863 19.54 135.234 18.8787 134.445 18.452C133.655 18.0253 132.791 17.812 131.853 17.812ZM147.968 18.324C148.565 17.172 149.419 16.2653 150.528 15.604C151.637 14.9213 152.917 14.58 154.368 14.58V18.548H153.28C151.68 18.548 150.389 18.9427 149.408 19.732C148.448 20.5 147.968 21.78 147.968 23.572V32.5H144.32V14.868H147.968V18.324ZM179.149 14.58C181.24 14.58 182.904 15.2413 184.141 16.564C185.4 17.8867 186.029 19.7747 186.029 22.228V32.5H182.381V22.612C182.381 21.076 181.997 19.892 181.229 19.06C180.461 18.2067 179.405 17.78 178.061 17.78C176.632 17.78 175.49 18.2387 174.637 19.156C173.805 20.052 173.389 21.3747 173.389 23.124V32.5H169.741V22.612C169.741 21.076 169.357 19.892 168.589 19.06C167.821 18.2067 166.765 17.78 165.421 17.78C163.992 17.78 162.85 18.2387 161.997 19.156C161.165 20.052 160.749 21.3747 160.749 23.124V32.5H157.101V14.868H160.749V18.548C161.197 17.268 161.944 16.2867 162.989 15.604C164.034 14.9213 165.261 14.58 166.669 14.58C168.141 14.58 169.41 14.9427 170.477 15.668C171.565 16.3933 172.354 17.4387 172.845 18.804C173.357 17.4813 174.178 16.4467 175.309 15.7C176.44 14.9533 177.72 14.58 179.149 14.58Z" fill="white"/>
<defs>
<linearGradient id="paint0_linear_6_10723" x1="3.308" y1="42.5524" x2="22.0097" y2="10.685" gradientUnits="userSpaceOnUse">
<stop offset="0.08" stop-color="#9945FF"/>
<stop offset="0.3" stop-color="#8752F3"/>
<stop offset="0.5" stop-color="#5497D5"/>
<stop offset="0.6" stop-color="#43B4CA"/>
<stop offset="0.72" stop-color="#28E0B9"/>
<stop offset="0.97" stop-color="#19FB9B"/>
</linearGradient>
<linearGradient id="paint1_linear_6_10723" x1="9.67845" y1="32.9905" x2="30.7937" y2="10.5807" gradientUnits="userSpaceOnUse">
<stop offset="0.08" stop-color="#9945FF"/>
<stop offset="0.3" stop-color="#8752F3"/>
<stop offset="0.5" stop-color="#5497D5"/>
<stop offset="0.6" stop-color="#43B4CA"/>
<stop offset="0.72" stop-color="#28E0B9"/>
<stop offset="0.97" stop-color="#19FB9B"/>
</linearGradient>
<linearGradient id="paint2_linear_6_10723" x1="3.54555" y1="23.7334" x2="22.2448" y2="-8.1385" gradientUnits="userSpaceOnUse">
<stop offset="0.08" stop-color="#9945FF"/>
<stop offset="0.3" stop-color="#8752F3"/>
<stop offset="0.5" stop-color="#5497D5"/>
<stop offset="0.6" stop-color="#43B4CA"/>
<stop offset="0.72" stop-color="#28E0B9"/>
<stop offset="0.97" stop-color="#19FB9B"/>
</linearGradient>
</defs>
</svg>
