<svg width="103" height="89" viewBox="0 0 103 89" fill="none" xmlns="http://www.w3.org/2000/svg">
<path d="M91.4302 74.86L74.0358 87.8702C73.6599 88.1567 73.2282 88.3615 72.7685 88.4715C72.3088 88.5816 71.8312 88.5943 71.3662 88.5091L1.94297 76.2679C1.61237 76.2078 1.30602 76.0539 1.06044 75.8246C0.81486 75.5952 0.640417 75.3001 0.557906 74.9744C0.477809 74.6498 0.495964 74.3088 0.610063 73.9945C0.725662 73.679 0.929159 73.4031 1.19652 73.1994L18.5733 60.1862C18.9491 59.8993 19.3807 59.6943 19.8405 59.5843C20.3003 59.4742 20.778 59.4616 21.2429 59.5473L90.6662 71.7885C91.0005 71.8381 91.3125 71.986 91.5626 72.2133C91.8127 72.4407 91.9895 72.7373 92.0706 73.0654C92.1518 73.3936 92.1335 73.7384 92.0182 74.0561C91.9028 74.3738 91.6956 74.65 91.4229 74.8497L91.4302 74.86ZM82.3202 40.8701C82.0585 40.478 81.7211 40.1422 81.3278 39.8823C80.9346 39.6225 80.4934 39.4437 80.0301 39.3567L10.6098 27.116C10.2782 27.0596 9.93738 27.0998 9.62804 27.2319C9.3187 27.3639 9.05392 27.5822 8.86531 27.8607C8.6792 28.1384 8.57964 28.465 8.57921 28.7993C8.57994 29.1371 8.67701 29.4588 8.85886 29.7441L20.7354 47.9245C20.989 48.316 21.33 48.6565 21.7191 48.9121C22.116 49.1751 22.5562 49.3461 23.0254 49.4379L92.4487 61.6791C92.7778 61.738 93.1169 61.6987 93.4239 61.5663C93.7309 61.4338 93.9921 61.214 94.1751 60.9342C94.3616 60.6569 94.4617 60.3305 94.4626 59.9963C94.4636 59.6621 94.3654 59.3351 94.1805 59.0567L82.3099 40.8773L82.3202 40.8701ZM12.392 16.9915L81.8152 29.2327C82.2821 29.3125 82.7602 29.2984 83.2216 29.1912C83.6845 29.0799 84.1111 28.8837 84.4848 28.5938L101.885 15.5847C102.086 15.4339 102.251 15.2409 102.37 15.0193C102.488 14.7976 102.556 14.5528 102.57 14.3019C102.583 14.0511 102.541 13.8003 102.448 13.5673C102.354 13.3343 102.21 13.1247 102.026 12.9532C101.777 12.7233 101.464 12.5736 101.128 12.5235L31.6933 0.280205C31.2312 0.198735 30.7487 0.216175 30.2874 0.31876C29.8286 0.427517 29.3979 0.632107 29.0237 0.919094L11.6469 13.9323C11.3806 14.1343 11.1785 14.4093 11.0653 14.7238C10.952 15.0383 10.9324 15.3789 11.0088 15.7043C11.0912 16.0296 11.2652 16.3243 11.5103 16.5535C11.7553 16.7828 12.0609 16.9368 12.391 16.9973L12.392 16.9915Z" fill="url(#paint0_linear_6_10767)"/>
<defs>
<linearGradient id="paint0_linear_6_10767" x1="7.39624" y1="79.1652" x2="94.0759" y2="9.90497" gradientUnits="userSpaceOnUse">
<stop offset="0.08" stop-color="#9945FF"/>
<stop offset="0.3" stop-color="#8752F3"/>
<stop offset="0.5" stop-color="#5497D5"/>
<stop offset="0.6" stop-color="#43B4CA"/>
<stop offset="0.72" stop-color="#28E0B9"/>
<stop offset="0.97" stop-color="#19FB9B"/>
</linearGradient>
</defs>
</svg>
