<svg width="14" height="13" viewBox="0 0 14 13" fill="none" xmlns="http://www.w3.org/2000/svg">
<path d="M13.9118 2.25176C13.3913 2.48277 12.839 2.63414 12.2735 2.70077C12.8694 2.34454 13.3152 1.78354 13.5277 1.12259C12.9678 1.45503 12.3552 1.68927 11.7164 1.81516C11.4495 1.5304 11.1271 1.3035 10.7689 1.14854C10.4108 0.993575 10.0246 0.913849 9.63441 0.914309C8.05933 0.914309 6.78227 2.19136 6.78227 3.76672C6.78227 3.98996 6.80739 4.20755 6.85621 4.41668C4.48555 4.29758 2.38356 3.1622 0.976688 1.43642C0.722941 1.87175 0.589683 2.36679 0.590608 2.87067C0.590608 3.86014 1.09409 4.73333 1.85948 5.24472C1.40652 5.23035 0.963544 5.10795 0.567466 4.88771L0.567184 4.92383C0.567184 6.30559 1.55044 7.45819 2.85544 7.72065C2.43524 7.8344 1.99466 7.851 1.5671 7.76919C1.93032 8.90231 2.98357 9.72725 4.23155 9.75011C3.22125 10.5432 1.97351 10.9733 0.689104 10.9713C0.459093 10.9713 0.231904 10.9577 0.00866699 10.9312C1.31283 11.7694 2.83081 12.2144 4.38113 12.2128C9.62791 12.2128 12.4967 7.86656 12.4967 4.09721C12.4967 3.97359 12.4942 3.85026 12.4888 3.72778C13.0473 3.32455 13.5292 2.82467 13.9118 2.25176Z" fill="black"/>
</svg>
