<svg width="16" height="12" viewBox="0 0 16 12" fill="none" xmlns="http://www.w3.org/2000/svg">
<path d="M15.5333 2.86659C15.5333 2.73325 15.3333 1.66659 14.8666 1.19992C14.2666 0.533252 13.6 0.466585 13.2666 0.466585H13.2C11.1333 0.333252 8.06665 0.333252 7.99998 0.333252C7.99998 0.333252 4.86665 0.333252 2.79998 0.466585H2.73331C2.39998 0.466585 1.73331 0.533252 1.13331 1.19992C0.666646 1.73325 0.466646 2.79992 0.466646 2.93325C0.466646 2.99992 0.333313 4.19992 0.333313 5.46659V6.59992C0.333313 7.86659 0.466646 9.06659 0.466646 9.13325C0.466646 9.26659 0.666646 10.3333 1.13331 10.7999C1.66665 11.3999 2.33331 11.4666 2.73331 11.5333H2.93331C4.13331 11.6666 7.79998 11.6666 7.93331 11.6666C7.93331 11.6666 11.0666 11.6666 13.1333 11.5333H13.2C13.5333 11.4666 14.2 11.3999 14.8 10.7999C15.2666 10.2666 15.4666 9.19992 15.4666 9.06659C15.4666 8.99992 15.6 7.79992 15.6 6.53325V5.39992C15.6666 4.19992 15.5333 2.93325 15.5333 2.86659ZM10.6 6.13325L6.59998 8.26659C6.53331 8.26659 6.53331 8.33325 6.46665 8.33325C6.39998 8.33325 6.33331 8.33325 6.33331 8.26659C6.26665 8.19992 6.19998 8.13325 6.19998 7.99992V3.66659C6.19998 3.53325 6.26665 3.46659 6.33331 3.39992C6.39998 3.33325 6.53331 3.33325 6.66665 3.39992L10.6666 5.53325C10.8 5.59992 10.8666 5.66659 10.8666 5.79992C10.8666 5.93325 10.7333 6.06659 10.6 6.13325Z" fill="black"/>
</svg>
