<svg width="512" height="470" viewBox="0 0 512 470" fill="none" xmlns="http://www.w3.org/2000/svg">
<g filter="url(#filter0_f_6_10788)">
<path d="M449.623 335.953L385.02 405.224C383.622 406.729 381.93 407.93 380.048 408.751C378.166 409.573 376.135 409.998 374.082 410H67.8333C66.3727 409.999 64.944 409.573 63.7221 408.772C62.5003 407.972 61.5384 406.833 60.9541 405.494C60.3699 404.155 60.1887 402.675 60.4327 401.235C60.6768 399.795 61.3354 398.457 62.3281 397.385L126.859 328.115C128.257 326.61 129.949 325.41 131.831 324.588C133.712 323.767 135.743 323.341 137.797 323.339H444.045C445.518 323.309 446.969 323.715 448.212 324.507C449.456 325.299 450.44 326.44 451.034 327.789C451.632 329.137 451.815 330.632 451.563 332.085C451.311 333.538 450.637 334.884 449.623 335.953ZM385.02 196.428C383.617 194.93 381.923 193.734 380.043 192.913C378.162 192.092 376.134 191.663 374.082 191.652H67.8333C66.3727 191.653 64.944 192.08 63.7221 192.88C62.5003 193.68 61.5384 194.82 60.9541 196.159C60.3699 197.497 60.1887 198.977 60.4327 200.417C60.6768 201.857 61.3354 203.195 62.3281 204.267L126.859 273.574C128.262 275.072 129.955 276.267 131.836 277.089C133.716 277.91 135.745 278.339 137.797 278.35H444.045C445.504 278.342 446.926 277.91 448.143 277.107C449.361 276.304 450.316 275.164 450.896 273.827C451.475 272.49 451.654 271.012 451.406 269.575C451.162 268.139 450.506 266.804 449.514 265.735L385.02 196.428ZM67.8333 146.663H374.082C376.135 146.661 378.166 146.235 380.048 145.413C381.93 144.592 383.622 143.391 385.02 141.887L449.623 72.6161C450.637 71.5462 451.311 70.2001 451.563 68.7473C451.815 67.2944 451.632 65.7998 451.034 64.4513C450.44 63.1029 449.456 61.9609 448.212 61.1692C446.969 60.3774 445.518 59.9712 444.045 60.0016H137.797C135.743 60.0038 133.712 60.4289 131.831 61.2507C129.949 62.0724 128.257 63.273 126.859 64.7776L62.3281 134.048C61.3354 135.12 60.6768 136.458 60.4327 137.898C60.1887 139.338 60.3699 140.818 60.9541 142.156C61.5384 143.495 62.5003 144.634 63.7221 145.435C64.944 146.235 66.3727 146.662 67.8333 146.663Z" fill="url(#paint0_linear_6_10788)" fill-opacity="0.3"/>
</g>
<defs>
<filter id="filter0_f_6_10788" x="0.327148" y="0" width="511.346" height="470" filterUnits="userSpaceOnUse" color-interpolation-filters="sRGB">
<feFlood flood-opacity="0" result="BackgroundImageFix"/>
<feBlend mode="normal" in="SourceGraphic" in2="BackgroundImageFix" result="shape"/>
<feGaussianBlur stdDeviation="30" result="effect1_foregroundBlur_6_10788"/>
</filter>
<linearGradient id="paint0_linear_6_10788" x1="60.3272" y1="235" x2="385.601" y2="85.7572" gradientUnits="userSpaceOnUse">
<stop offset="0.08" stop-color="#9945FF"/>
<stop offset="0.3" stop-color="#8752F3"/>
<stop offset="0.5" stop-color="#5497D5"/>
<stop offset="0.6" stop-color="#43B4CA"/>
<stop offset="0.72" stop-color="#28E0B9"/>
<stop offset="1" stop-color="#19FB9B"/>
</linearGradient>
</defs>
</svg>
